<?xml version="1.0" encoding="UTF-8"?>
<svg version="1.1" viewBox="0 0 1670 2048" width="1280" height="1280" xmlns="http://www.w3.org/2000/svg">
<path transform="translate(441,91)" d="m0 0h845l29 3 23 5 23 7 21 9 16 8 17 10 17 12 14 12 8 7 14 14 9 11 13 17 11 18 12 23 10 25 6 22 4 19 2 15 1 16v569l-2 22-5 26-7 24-10 25-13 25-8 12-12 16-11 13-11 12-14 13-20 15-21 13-21 11-23 9-20 6-29 6-18 2-23 1-428 1-1 450-4 26-7 28-9 24-11 23-11 18-9 13-11 14-14 15-9 9-22 18-18 12-18 10-21 10-20 7-17 5-26 5-18 2h-182l-30-4-30-8-21-8-25-12-18-11-19-14-15-13-18-18-9-11-10-13-10-15-12-22-10-23-8-26-5-23-3-24-1-38v-778l1-53 3-24 5-23 7-23 10-23 8-16 11-18 14-19 9-10 7-8 12-12 8-7 18-14 17-11 18-10 20-9 24-8 25-6 20-3 11-1h596l18 3 21 7 17 9 13 9 12 11 7 7 11 15 7 12 8 20 4 17 2 19v9l-2 17-4 18-6 15-7 14-10 14-9 10-11 11-15 10-17 9-18 6-15 3-9 1-508 1-14 2-16 6-11 8-9 9-7 11-5 12-2 8-1 32v662l1 20 5 16 7 12 11 12 11 7 14 6 10 2h19l15-4 15-8 7-6h2l2-4 7-9 6-12 3-11 1-7 1-379 3-26 5-24 6-20 10-25 10-20 12-19 13-17 9-10 7-8 15-15 11-9 15-11 21-13 27-13 22-8 24-6 24-4 12-1 250-1 26-1 23-3 23-6 24-10 15-8 12-8 16-13 15-15 13-17 8-13 8-15 9-24 5-22 2-17v-195l-3-23-6-22-6-16-8-16-9-15-11-14-11-12-13-12-14-10-13-8-16-8-15-6-22-6-16-3-35-1h-598l-56 1-24 3-28 6-27 9-20 9-22 12-17 12-14 11-12 11-7 6-7 8-11 13-11 15-10 16-12 23-10 25-7 25-5 28-3 20h-1v-59l1-215 3-25 6-26 9-27 11-24 11-19 11-16 13-16 9-10 19-19 14-11 19-13 21-12 15-7 19-7 24-7 20-4 18-2z" fill="#00B6EC"/>
<path transform="translate(416,495)" d="m0 0h596l18 3 21 7 17 9 13 9 12 11 7 7 11 15 7 12 8 20 4 17 2 19v9l-2 17-4 18-6 15-7 14-10 14-9 10-11 11-15 10-17 9-18 6-15 3-9 1-508 1-14 2-16 6-11 8-9 9-7 11-5 12-2 8-1 32v662l1 20 5 16 7 12 11 12 11 7 14 6 10 2h19l15-4 15-8 7-6h2l2-4 7-9 6-12 3-11 2-14 1-118 2-30h2v-6h2l3-12 11-28 11-23 11-18 7-10 12-16 16-17 13-13 11-9 15-11 19-12 14-7 16-7 24-8 24-6 16-3 21-2h15l1 3-1 449-4 26-7 28-9 24-11 23-11 18-9 13-11 14-14 15-9 9-22 18-18 12-18 10-21 10-20 7-17 5-26 5-18 2h-182l-30-4-30-8-21-8-25-12-18-11-19-14-15-13-18-18-9-11-10-13-10-15-12-22-10-23-8-26-5-23-3-24-1-38v-778l1-53 3-24 5-23 7-23 10-23 8-16 11-18 14-19 9-10 7-8 12-12 8-7 18-14 17-11 18-10 20-9 24-8 25-6 20-3z" fill="#007BBD"/>
<path transform="translate(441,91)" d="m0 0h845l29 3 23 5 23 7 21 9 16 8 17 10 17 12 14 12 8 7 14 14 9 11 13 17 11 18 12 23 10 25 6 22 4 19 2 15 1 16v569l-2 22-5 26-7 24-10 25-13 25-8 12-12 16-11 13-11 12-14 13-15 11v-3h2l2-4 4-6 1-3 4-4 17-28 8-15 9-19 6-17 5-17 4-20 3-31v-572l-2-23-4-20-6-21-8-22-8-17-9-16-10-15-14-18-14-15-12-12-11-9-17-13-13-8-14-8-24-11-25-9-30-7-16-2-20-1h-624l-233 1-26 3-21 4-27 8-14 6-14 5-4 3h-4l-1 2-7 2-11 9-13 13-2-1 26-26 14-11 19-13 21-12 15-7 19-7 24-7 20-4 18-2z" fill="#00FDFE"/>
<path transform="translate(266,555)" d="m0 0 3 1-9 10-8 9-2 1-3 8-4 8h-2l-2 9-6 11-5 12-8 27-4 12-5 30-1 10v24l1 55 1 450v327l2 23 4 24 7 27 6 17 6 13v4h2l5 10 14 22 12 16 8 10 15 15 10 8v2l4 2 11 9 13 9 13 8 16 9 20 8 16 6 18 5 22 5 30 2 87 1 81-1 20-2 36-8 19-6 14-4 5-3 16-6 7-3 1 5-12 11-18 13-15 9-23 12-25 10-21 6-26 5-18 2h-182l-30-4-30-8-21-8-25-12-18-11-19-14-15-13-18-18-9-11-10-13-10-15-12-22-10-23-8-26-5-23-3-24-1-38v-778l1-53 3-24 5-23 7-23 10-23 8-16 11-18 14-19 9-10 7-8 12-12 8-7z" fill="#066291"/>
<path transform="translate(1128,615)" d="m0 0h1l1 6v29l-4 18-6 15-7 14-10 14-9 10-11 11-15 10-17 9-18 6-15 3-9 1-508 1-14 2-16 6-11 8-9 9-7 11-5 12h-2l-1-12v-12l3-20 4-13 3-5 7-9 9-9 11-8 10-4 11-2 32-1 487-1 24-5 10-3 11-5 11-6 16-12h2l2-4 12-12 1-2h2l2-5 6-8 2-5h2l2-5 7-17z" fill="#065F90"/>
<path transform="translate(1186,865)" d="m0 0 2 1-9 6-5 4-2 4-8 7-13 10-14 9-17 9-18 7-18 5-17 3-12 1-67 1-193 1-25 1-26 4-25 7-20 7-15 6-8 4-9 3-10 8-12 11-7 8-3 2 2-4 14-15 12-12 11-9 15-11 21-13 27-13 22-8 24-6 24-4 12-1 250-1 26-1 23-3 23-6 24-10 15-8z" fill="#00FDFE"/>
<path transform="translate(834,1164)" d="m0 0h4l-1 47-1 5h-1v-5l-35 4-25 5-19 5-24 9-23 11-19 12-16 12-5 4h-2v2l-8 7-3 1-2 4-5 5-4 2-2 4-8 9-11 14-11 16-1 2h-2l-1 4-8 14-9 21-5 15-3 8-3 7-4 1-1-1v-10l5-29 7-25 8-20 3-10 9-17 14-22 13-17 17-16 9-9 11-9 10-8 15-10 14-8 17-9 17-7 23-8 27-6 21-3z" fill="#065F8F"/>
<path transform="translate(437,1538)" d="m0 0 2 2 5 12 6 9 9 10 10 7 11 5 10 3 5 1h19l15-4 15-8 7-6h2l2-4 7-9 8-16 3-1v8l-2 14v10l-3 14-5 13-6 9-7 7h-2v2h-2v2l-10 7-10 5-9 2h-16l-15-2-11-4-12-7-6-5-7-10-5-8-5-14-2-16-1-19-1-5z" fill="#076191"/>
<path transform="translate(1493,357)" d="m0 0h1l1 15 1 444 1 50 2 32 4 41-2 26-6 22-8 25-7 25-1 5 10-5 1 1 8-15 4-3 3-4 5-9 4-5-1 6-14 27-8 12-12 16-11 13-11 12-14 13-15 11v-3h2l2-4 4-6 1-3 4-4 17-28 8-15 9-19 6-17 5-17 4-20 3-31z" fill="#00F2FE"/>
<path transform="translate(914,122)" d="m0 0h162l141 1 28 1 19 2v1l-28-1h-624l-233 1-26 3-21 4-27 8-14 6-14 5-4 3h-4l-1 2-7 2-11 9-13 13-2-1 26-26 14-11 12-8h2v2l-2 1 27-6 14-2 19-4 36-3 19-1h277z" fill="#00F2FE"/>
<path transform="translate(1094,922)" d="m0 0 4 1-14 4-17 3-12 1-67 1-193 1-25 1-26 4-25 7-20 7-15 6-8 4-9 3-10 8-12 11-7 8-3 2 2-4 14-15 12-12 11-9 15-11 5-1 4 1 24-4 3-1 11-1 9-3 11-2 25-2 111-1 30-1 12-1h46l31 1h20l48-3z" fill="#00F2FE"/>
<path transform="translate(1534,328)" d="m0 0h1l1 16v569l-3 1-1-3 1-581z" fill="#00F2FE"/>
<path transform="translate(736,937)" d="m0 0m-11 1h11v2l-26 8-26 10-8 4-9 3-10 8-12 11-7 8-3 2 2-4 14-15 12-12 11-9 15-11 5-1 4 1 24-4z" fill="#00F2FE"/>
<path transform="translate(1343,151)" d="m0 0 5 1 19 10 11 7 17 12 13 11 10 8 5 6 12 12 12 16v2h2l6 11 9 16 8 16 8 20 5 14v5l-2-3-8-23-10-22-9-16-10-15-14-18-14-15-12-12-11-9-17-13-13-8-14-8-8-4z" fill="#00F2FE"/>
<path transform="translate(1186,865)" d="m0 0 2 1-9 6-5 4-2 4-8 7-13 10-14 9-17 9-18 7-4-1 21-9 17-9 10-7 1-5h-9l-1-3 17-6 21-10z" fill="#00F3FE"/>
<path transform="translate(1532,919)" d="m0 0h1l1 16-5 26-7 24-4 10-2 1v-9l2-3 3-10 3-12 2-4 1-11 2-4 2-21z" fill="#00F4FE"/>
<path transform="translate(1494,218)" d="m0 0 5 2 15 29 7 18-2 4-3-10-7-15-9-17z" fill="#00F5FE"/>
<path transform="translate(168,552)" d="m0 0h1l2 19v11l1 2-1 16-2 11h-1z" fill="#40F5FE"/>
<path transform="translate(275,144)" d="m0 0 2 1-11 9-6 5-5 6-8 7-10 10-2-1 26-26z" fill="#08F8FE"/>
<path transform="translate(171,561)" d="m0 0 1 3 4-2-1 11-2 11h-2l-1-2v-14z" fill="#0098CD"/>
<path transform="translate(1474,187)" d="m0 0 5 4 13 18-2 3-6-9-8-10-3-3z" fill="#00F5FE"/>
<path transform="translate(661,965)" d="m0 0 2 1-10 11-8 7-7 8-3 2 2-4 14-15z" fill="#17F6FE"/>
<path transform="translate(1534,328)" d="m0 0h1l1 18-1 5h-2v-21z" fill="#0BF7FE"/>
<path transform="translate(168,552)" d="m0 0h1l2 19-1 5h-2z" fill="#00F3FD"/>
<path transform="translate(1513,252)" d="m0 0h2l6 15-2 4-3-10z" fill="#00F5FE"/>
<path transform="translate(679,950)" d="m0 0 2 1-16 14-3-1 13-11z" fill="#00F9FE"/>
<path transform="translate(1513 1e3)" d="m0 0 1 3-6 13-2-4 4-7z" fill="#00F5FE"/>
<path transform="translate(1494,218)" d="m0 0 5 2 7 14h-2l-4-7v-2l-3-1z" fill="#07F7FE"/>
<path transform="translate(1477,1060)" d="m0 0 2 3-6 7-3 1v-2h2l2-5z" fill="#00FBFE"/>
</svg>
